HIERARCHY
ROOT pelvis
{
	OFFSET 0.003123 -0.351407 0.012037
	CHANNELS 6 Xposition Yposition Zposition Zrotation Yrotation Xrotation 
	JOINT left_hip
	{
		OFFSET 0.058189 -0.092763 -0.026001
		CHANNELS 3 Zrotation Yrotation Xrotation
		JOINT left_knee
		{
			OFFSET 0.054695 -0.378753 -0.009396
			CHANNELS 3 Zrotation Yrotation Xrotation
			JOINT left_ankle
			{
				OFFSET -0.043453 -0.403059 -0.031876
				CHANNELS 3 Zrotation Yrotation Xrotation
				JOINT left_foot
				{
					OFFSET 0.047257 -0.057997 0.118216
					CHANNELS 3 Zrotation Yrotation Xrotation
					End Site
					{
						OFFSET 0.000000 0.000000 0.000000
					}
				}
			}
		}
	}
	JOINT right_hip
	{
		OFFSET -0.063267 -0.103908 -0.021250
		CHANNELS 3 Zrotation Yrotation Xrotation
		JOINT right_knee
		{
			OFFSET -0.044210 -0.362380 -0.016824
			CHANNELS 3 Zrotation Yrotation Xrotation
			JOINT right_ankle
			{
				OFFSET 0.015417 -0.410728 -0.020192
				CHANNELS 3 Zrotation Yrotation Xrotation
				JOINT right_foot
				{
					OFFSET -0.038812 -0.058328 0.119049
					CHANNELS 3 Zrotation Yrotation Xrotation
					End Site
					{
						OFFSET 0.000000 0.000000 0.000000
					}
				}
			}
		}
	}
	JOINT spine_1
	{
		OFFSET -0.002763 0.109891 -0.027618
		CHANNELS 3 Zrotation Yrotation Xrotation
		JOINT spine_2
		{
			OFFSET 0.009448 0.131853 -0.005940
			CHANNELS 3 Zrotation Yrotation Xrotation
			JOINT spine_3
			{
				OFFSET -0.011330 0.052235 0.028447
				CHANNELS 3 Zrotation Yrotation Xrotation
				JOINT neck
				{
					OFFSET -0.012164 0.165167 -0.031615
					CHANNELS 3 Zrotation Yrotation Xrotation
					JOINT head
					{
						OFFSET 0.024783 0.160452 0.020737
						CHANNELS 3 Zrotation Yrotation Xrotation
						End Site
						{
							OFFSET 0.000000 0.000000 0.000000
						}
					}
				}
				JOINT left_collar
				{
					OFFSET 0.046364 0.084944 -0.007220
					CHANNELS 3 Zrotation Yrotation Xrotation
					JOINT left_shoulder
					{
						OFFSET 0.119239 0.057728 -0.015461
						CHANNELS 3 Zrotation Yrotation Xrotation
						JOINT left_elbow
						{
							OFFSET 0.254123 -0.072151 -0.042459
							CHANNELS 3 Zrotation Yrotation Xrotation
							JOINT left_wrist
							{
								OFFSET 0.251987 0.023221 -0.002472
								CHANNELS 3 Zrotation Yrotation Xrotation
								JOINT left_index_1
								{
									OFFSET 0.101902 -0.008688 0.019351
									CHANNELS 3 Zrotation Yrotation Xrotation
									JOINT left_index_2
									{
										OFFSET 0.030149 -0.011154 0.001151
										CHANNELS 3 Zrotation Yrotation Xrotation
										JOINT left_index_3
										{
											OFFSET 0.006504 -0.021577 -0.002433
											CHANNELS 3 Zrotation Yrotation Xrotation
											End Site
											{
												OFFSET 0.000000 0.000000 0.000000
											}
										}
									}
								}
								JOINT left_middle_1
								{
									OFFSET 0.109398 -0.006328 -0.003981
									CHANNELS 3 Zrotation Yrotation Xrotation
									JOINT left_middle_2
									{
										OFFSET 0.026472 -0.015218 -0.004641
										CHANNELS 3 Zrotation Yrotation Xrotation
										JOINT left_middle_3
										{
											OFFSET 0.005022 -0.023347 -0.001911
											CHANNELS 3 Zrotation Yrotation Xrotation
											End Site
											{
												OFFSET 0.000000 0.000000 0.000000
											}
										}
									}
								}
								JOINT left_pinky_1
								{
									OFFSET 0.084047 -0.014539 -0.043750
									CHANNELS 3 Zrotation Yrotation Xrotation
									JOINT left_pinky_2
									{
										OFFSET 0.012124 -0.014448 -0.005375
										CHANNELS 3 Zrotation Yrotation Xrotation
										JOINT left_pinky_3
										{
											OFFSET 0.003798 -0.018853 0.000167
											CHANNELS 3 Zrotation Yrotation Xrotation
											End Site
											{
												OFFSET 0.000000 0.000000 0.000000
											}
										}
									}
								}
								JOINT left_ring_1
								{
									OFFSET 0.097444 -0.009268 -0.027345
									CHANNELS 3 Zrotation Yrotation Xrotation
									JOINT left_ring_2
									{
										OFFSET 0.023561 -0.016057 -0.001895
										CHANNELS 3 Zrotation Yrotation Xrotation
										JOINT left_ring_3
										{
											OFFSET 0.004257 -0.023548 0.000814
											CHANNELS 3 Zrotation Yrotation Xrotation
											End Site
											{
												OFFSET 0.000000 0.000000 0.000000
											}
										}
									}
								}
								JOINT left_thumb_1
								{
									OFFSET 0.040636 -0.017977 0.025611
									CHANNELS 3 Zrotation Yrotation Xrotation
									JOINT left_thumb_2
									{
										OFFSET 0.021637 -0.017639 0.011623
										CHANNELS 3 Zrotation Yrotation Xrotation
										JOINT left_thumb_3
										{
											OFFSET 0.024002 -0.008356 0.006548
											CHANNELS 3 Zrotation Yrotation Xrotation
											End Site
											{
												OFFSET 0.000000 0.000000 0.000000
											}
										}
									}
								}
							}
						}
					}
				}
				JOINT right_collar
				{
					OFFSET -0.047695 0.084339 -0.013400
					CHANNELS 3 Zrotation Yrotation Xrotation
					JOINT right_shoulder
					{
						OFFSET -0.102578 0.053524 -0.012669
						CHANNELS 3 Zrotation Yrotation Xrotation
						JOINT right_elbow
						{
							OFFSET -0.271150 -0.036492 -0.026467
							CHANNELS 3 Zrotation Yrotation Xrotation
							JOINT right_wrist
							{
								OFFSET -0.249267 -0.004533 -0.015325
								CHANNELS 3 Zrotation Yrotation Xrotation
								JOINT right_index_1
								{
									OFFSET -0.099881 -0.011783 0.019600
									CHANNELS 3 Zrotation Yrotation Xrotation
									JOINT right_index_2
									{
										OFFSET -0.030148 -0.011154 0.001151
										CHANNELS 3 Zrotation Yrotation Xrotation
										JOINT right_index_3
										{
											OFFSET -0.006505 -0.021577 -0.002432
											CHANNELS 3 Zrotation Yrotation Xrotation
											End Site
											{
												OFFSET 0.000000 0.000000 0.000000
											}
										}
									}
								}
								JOINT right_middle_1
								{
									OFFSET -0.107376 -0.009422 -0.003734
									CHANNELS 3 Zrotation Yrotation Xrotation
									JOINT right_middle_2
									{
										OFFSET -0.026472 -0.015218 -0.004641
										CHANNELS 3 Zrotation Yrotation Xrotation
										JOINT right_middle_3
										{
											OFFSET -0.005022 -0.023347 -0.001911
											CHANNELS 3 Zrotation Yrotation Xrotation
											End Site
											{
												OFFSET 0.000000 0.000000 0.000000
											}
										}
									}
								}
								JOINT right_pinky_1
								{
									OFFSET -0.082027 -0.017634 -0.043503
									CHANNELS 3 Zrotation Yrotation Xrotation
									JOINT right_pinky_2
									{
										OFFSET -0.012123 -0.014448 -0.005374
										CHANNELS 3 Zrotation Yrotation Xrotation
										JOINT right_pinky_3
										{
											OFFSET -0.003798 -0.018852 0.000167
											CHANNELS 3 Zrotation Yrotation Xrotation
											End Site
											{
												OFFSET 0.000000 0.000000 0.000000
											}
										}
									}
								}
								JOINT right_ring_1
								{
									OFFSET -0.095423 -0.012362 -0.027099
									CHANNELS 3 Zrotation Yrotation Xrotation
									JOINT right_ring_2
									{
										OFFSET -0.023561 -0.016057 -0.001895
										CHANNELS 3 Zrotation Yrotation Xrotation
										JOINT right_ring_3
										{
											OFFSET -0.004257 -0.023548 0.000816
											CHANNELS 3 Zrotation Yrotation Xrotation
											End Site
											{
												OFFSET 0.000000 0.000000 0.000000
											}
										}
									}
								}
								JOINT right_thumb_1
								{
									OFFSET -0.038613 -0.021074 0.025861
									CHANNELS 3 Zrotation Yrotation Xrotation
									JOINT right_thumb_2
									{
										OFFSET -0.021636 -0.017639 0.011623
										CHANNELS 3 Zrotation Yrotation Xrotation
										JOINT right_thumb_3
										{
											OFFSET -0.024004 -0.008353 0.006547
											CHANNELS 3 Zrotation Yrotation Xrotation
											End Site
											{
												OFFSET 0.000000 0.000000 0.000000
											}
										}
									}
								}
							}
						}
					}
				}
			}
		}
	}
}
MOTION
Frames: 4
Frame Time: 0.050000
0.000027 0.984940 0.000587 0.980999 -0.498439 -29.002573 15.950846 0.165206 14.714060 -5.358744 -1.080794 22.722289 -8.603587 1.308763 21.015332 0.000000 0.000000 0.000000 -15.580175 0.932027 31.367798 0.969785 0.639988 20.274466 6.251774 -1.330422 19.387257 0.000000 0.000000 0.000000 -6.278129 -1.327956 59.148594 13.003070 -11.496572 -53.111322 3.283081 19.351310 37.230599 0.617994 2.655121 -29.185925 0.000000 0.000000 0.000000 -6.434353 1.473796 -2.839883 -62.621392 -28.281877 -8.282449 -134.286684 -75.240091 137.859498 3.270586 0.329117 -7.306671 2.241333 -1.050352 -0.467519 23.536340 -2.201877 -4.393686 0.000000 0.000000 0.000000 4.398055 -3.566331 -1.466084 19.412149 -0.981432 1.121796 0.000000 0.000000 0.000000 16.416385 -8.248279 -6.320636 6.303740 1.706619 9.054279 0.000000 0.000000 0.000000 6.559022 -3.244447 -2.106535 16.404661 1.046382 2.110334 0.000000 0.000000 0.000000 11.865182 5.561448 -2.249486 -15.773579 -6.658201 2.484890 0.000000 0.000000 0.000000 21.825184 3.856169 5.537386 54.187137 18.849838 -0.226332 106.358110 60.454128 80.953097 -1.128286 -1.998726 -5.368406 -1.976705 2.122566 -0.834697 -18.212845 1.835702 -3.156592 0.000000 0.000000 0.000000 -3.927753 4.583898 -2.170473 -14.772640 0.586833 2.292098 0.000000 0.000000 0.000000 -12.783630 7.821005 -6.814546 -6.944589 -1.564204 8.481452 0.000000 0.000000 0.000000 -5.109117 3.302787 -2.198399 -13.677841 -0.821219 0.699461 0.000000 0.000000 0.000000 -7.586162 -2.971609 -2.005353 10.219853 6.767999 0.704547 0.000000 0.000000 0.000000 
0.000321 0.974947 0.001907 1.132366 -0.203028 -28.956304 15.528799 0.191126 13.054298 -5.536637 -1.231305 25.255852 -7.270074 1.481734 18.460484 0.000000 0.000000 0.000000 -16.555230 1.132263 29.609848 1.944741 0.514994 23.852623 5.465184 -1.194131 17.166340 0.000000 0.000000 0.000000 -6.322536 -1.331783 58.639250 12.253129 -11.239425 -49.342166 1.910196 18.909135 32.037348 0.900649 2.573397 -25.968679 0.000000 0.000000 0.000000 -5.977885 1.246074 -2.586208 -63.254007 -28.064849 -8.003946 -127.801106 -75.840898 129.809635 3.124744 0.797411 -6.279221 2.153622 -1.171989 -0.509088 23.888081 -2.278095 -4.193890 0.000000 0.000000 0.000000 4.645565 -3.958332 -1.677183 19.546796 -1.028594 1.423611 0.000000 0.000000 0.000000 17.552457 -8.685045 -6.542328 5.941407 1.752720 9.338080 0.000000 0.000000 0.000000 7.183279 -3.595655 -2.351087 16.324949 1.029223 2.522837 0.000000 0.000000 0.000000 11.398528 5.661465 -1.816168 -15.754663 -6.616152 2.512262 0.000000 0.000000 0.000000 22.527963 3.872720 5.433329 54.118012 16.938704 -0.772558 103.141708 59.679915 75.891990 -1.048686 -2.045556 -4.244228 -1.342591 1.579402 -0.617273 -19.896397 2.198670 -4.652582 0.000000 0.000000 0.000000 -3.250030 4.068538 -1.938641 -17.182706 0.924186 1.328422 0.000000 0.000000 0.000000 -13.455998 7.754894 -6.218527 -6.710511 -1.479768 8.229119 0.000000 0.000000 0.000000 -4.833289 3.210610 -2.112883 -15.947468 -0.855552 0.657699 0.000000 0.000000 0.000000 -7.866087 -4.082152 -1.123651 10.975930 8.598906 0.522231 0.000000 0.000000 0.000000 
-0.000503 0.967533 0.000587 1.312969 0.112140 -28.834851 15.191974 0.196570 11.431774 -5.571557 -1.427268 27.706399 -6.346370 1.687603 16.750119 0.000000 0.000000 0.000000 -17.349149 1.271382 28.256104 2.779476 0.342392 26.546418 4.793054 -0.791039 14.756475 0.000000 0.000000 0.000000 -6.344665 -1.348650 59.063789 11.642795 -11.024963 -47.969940 1.659088 18.212072 29.477592 1.026430 2.586973 -25.286628 0.000000 0.000000 0.000000 -6.103976 0.732975 -2.294515 -63.630929 -27.659514 -7.862966 -125.810798 -76.130500 127.373414 3.159746 0.921217 -6.362340 1.847131 -1.611607 -0.647479 23.520203 -2.202013 -3.743434 0.000000 0.000000 0.000000 4.668450 -4.395572 -1.948858 19.100244 -0.961261 1.763881 0.000000 0.000000 0.000000 18.202962 -9.115104 -7.173016 5.290435 1.901007 9.804376 0.000000 0.000000 0.000000 6.699343 -3.128039 -2.001500 16.906943 0.987039 1.151025 0.000000 0.000000 0.000000 11.206833 5.509949 -1.868817 -14.531904 -8.697095 1.648784 0.000000 0.000000 0.000000 22.330949 3.942251 5.267392 54.736549 17.022074 -0.517449 100.749365 60.197930 73.585922 -1.143749 -2.253898 -4.010161 -1.072972 2.514757 -0.934849 -19.681275 2.018982 -3.020998 0.000000 0.000000 0.000000 -3.824098 4.440738 -2.093076 -15.808273 0.742566 2.377964 0.000000 0.000000 0.000000 -13.890228 7.566770 -5.723886 -6.257712 -1.485570 8.084385 0.000000 0.000000 0.000000 -5.104092 2.809255 -1.791196 -15.305620 -0.797181 0.155639 0.000000 0.000000 0.000000 -7.217295 -3.967054 -0.847537 10.193544 7.970934 0.442990 0.000000 0.000000 0.000000 
0.001911 0.963665 0.001907 1.405152 -0.340023 -28.744243 15.041271 0.232172 10.744200 -5.926278 -1.361716 29.062695 -5.774128 2.024555 16.094519 0.000000 0.000000 0.000000 -17.858598 1.457894 27.680880 2.843603 0.373169 27.267350 4.626468 -0.657457 13.991574 0.000000 0.000000 0.000000 -6.269891 -1.299561 59.486031 10.883631 -10.849269 -46.613950 1.629451 17.129110 26.713233 0.865184 2.532045 -22.920917 0.000000 0.000000 0.000000 -6.500440 0.953069 -2.440214 -63.413451 -26.912224 -7.663781 -127.349097 -76.526452 129.174540 3.038582 1.160871 -6.470239 1.618006 -1.088594 -0.449463 23.453143 -2.181282 -3.851789 0.000000 0.000000 0.000000 4.426443 -3.690734 -1.541329 18.977085 -0.953359 1.369389 0.000000 0.000000 0.000000 17.438003 -8.603890 -6.572969 5.460756 1.824204 9.380300 0.000000 0.000000 0.000000 6.171941 -2.585320 -1.601081 16.918305 0.978719 0.765167 0.000000 0.000000 0.000000 11.120400 5.446607 -1.900569 -14.592159 -8.753315 1.643487 0.000000 0.000000 0.000000 22.223531 3.949754 4.898198 54.512868 17.464138 -0.270402 98.168054 59.599368 69.535988 -1.118951 -2.204881 -2.982415 -0.607196 1.529817 -0.567954 -19.727020 2.169900 -3.567370 0.000000 0.000000 0.000000 -3.478315 4.311554 -2.054192 -15.505032 0.710207 3.272848 0.000000 0.000000 0.000000 -15.869019 7.917182 -5.337098 -3.171389 -1.773817 8.778769 0.000000 0.000000 0.000000 -4.779251 2.794302 -1.771387 -15.013608 -0.824540 1.648885 0.000000 0.000000 0.000000 -7.300048 -4.244345 -0.568861 12.280406 7.460697 1.284503 0.000000 0.000000 0.000000 
